<?xml version="1.0" encoding="UTF-8" standalone="yes"?><svg xmlns="http://www.w3.org/2000/svg" xmlns:xlink="http://www.w3.org/1999/xlink" height="428px" style="width:630px;height:428px;" version="1.1" viewBox="0 0 630 428" width="630px"><defs><filter height="300%" id="f1" width="300%" x="-1" y="-1"><feGaussianBlur result="blurOut" stdDeviation="2.0"/><feColorMatrix in="blurOut" result="blurOut2" type="matrix" values="0 0 0 0 0 0 0 0 0 0 0 0 0 0 0 0 0 0 .4 0"/><feOffset dx="4.0" dy="4.0" in="blurOut2" result="blurOut3"/><feBlend in="SourceGraphic" in2="blurOut3" mode="normal"/></filter></defs><g><ellipse cx="270.125" cy="20" fill="#000000" filter="url(#f1)" rx="10" ry="10" style="stroke: none; stroke-width: 1.0;"/><rect fill="#FEFECE" filter="url(#f1)" height="50.1875" rx="12.5" ry="12.5" style="stroke: #A80036; stroke-width: 1.5;" width="107" x="216.625" y="50"/><text fill="#000000" font-family="sans-serif" font-size="12" lengthAdjust="spacingAndGlyphs" textLength="70" x="229.625" y="72.457">Evaluation of</text><text fill="#000000" font-family="sans-serif" font-size="12" lengthAdjust="spacingAndGlyphs" textLength="87" x="226.625" y="87.5508">Existing System</text><polygon fill="#FEFECE" filter="url(#f1)" points="212.625,120.1875,327.625,120.1875,339.625,132.1875,327.625,144.1875,212.625,144.1875,200.625,132.1875,212.625,120.1875" style="stroke: #A80036; stroke-width: 1.5;"/><text fill="#000000" font-family="sans-serif" font-size="11" lengthAdjust="spacingAndGlyphs" textLength="115" x="212.625" y="136.6885">Cloud Native Compliant?</text><text fill="#000000" font-family="sans-serif" font-size="11" lengthAdjust="spacingAndGlyphs" textLength="18" x="182.625" y="129.7705">yes</text><text fill="#000000" font-family="sans-serif" font-size="11" lengthAdjust="spacingAndGlyphs" textLength="12" x="339.625" y="129.7705">no</text><rect fill="#FEFECE" filter="url(#f1)" height="50.1875" rx="12.5" ry="12.5" style="stroke: #A80036; stroke-width: 1.5;" width="90" x="10" y="164.1875"/><text fill="#000000" font-family="sans-serif" font-size="12" lengthAdjust="spacingAndGlyphs" textLength="70" x="20" y="186.6445">Cloud Native</text><text fill="#000000" font-family="sans-serif" font-size="12" lengthAdjust="spacingAndGlyphs" textLength="60" x="20" y="201.7383">Application</text><ellipse cx="55" cy="259.375" fill="none" filter="url(#f1)" rx="10" ry="10" style="stroke: #000000; stroke-width: 1.0;"/><ellipse cx="55.5" cy="259.875" fill="#000000" filter="url(#f1)" rx="6" ry="6" style="stroke: none; stroke-width: 1.0;"/><polygon fill="#FEFECE" filter="url(#f1)" points="421.25,164.1875,549.25,164.1875,561.25,176.1875,549.25,188.1875,421.25,188.1875,409.25,176.1875,421.25,164.1875" style="stroke: #A80036; stroke-width: 1.5;"/><text fill="#000000" font-family="sans-serif" font-size="11" lengthAdjust="spacingAndGlyphs" textLength="128" x="421.25" y="180.6885">Correct Bounded Context?</text><text fill="#000000" font-family="sans-serif" font-size="11" lengthAdjust="spacingAndGlyphs" textLength="18" x="391.25" y="173.7705">yes</text><text fill="#000000" font-family="sans-serif" font-size="11" lengthAdjust="spacingAndGlyphs" textLength="12" x="561.25" y="173.7705">no</text><polygon fill="#FEFECE" filter="url(#f1)" points="290,209.7875,465,209.7875,477,221.7875,465,233.7875,290,233.7875,278,221.7875,290,209.7875" style="stroke: #A80036; stroke-width: 1.5;"/><text fill="#000000" font-family="sans-serif" font-size="11" lengthAdjust="spacingAndGlyphs" textLength="175" x="290" y="226.2885">Can it be converted to Cloud Native?</text><text fill="#000000" font-family="sans-serif" font-size="11" lengthAdjust="spacingAndGlyphs" textLength="18" x="260" y="219.3705">yes</text><text fill="#000000" font-family="sans-serif" font-size="11" lengthAdjust="spacingAndGlyphs" textLength="12" x="477" y="219.3705">no</text><polygon fill="#FEFECE" filter="url(#f1)" points="212,255.3875,314,255.3875,326,267.3875,314,279.3875,212,279.3875,200,267.3875,212,255.3875" style="stroke: #A80036; stroke-width: 1.5;"/><text fill="#000000" font-family="sans-serif" font-size="11" lengthAdjust="spacingAndGlyphs" textLength="102" x="212" y="271.8885">Is it worth the effort?</text><text fill="#000000" font-family="sans-serif" font-size="11" lengthAdjust="spacingAndGlyphs" textLength="18" x="182" y="264.9705">yes</text><text fill="#000000" font-family="sans-serif" font-size="11" lengthAdjust="spacingAndGlyphs" textLength="12" x="326" y="264.9705">no</text><rect fill="#FEFECE" filter="url(#f1)" height="65.2813" rx="12.5" ry="12.5" style="stroke: #A80036; stroke-width: 1.5;" width="90" x="140" y="300.9875"/><text fill="#000000" font-family="sans-serif" font-size="12" lengthAdjust="spacingAndGlyphs" textLength="45" x="150" y="323.4445">Aspiring</text><text fill="#000000" font-family="sans-serif" font-size="12" lengthAdjust="spacingAndGlyphs" textLength="70" x="150" y="338.5383">Cloud Native</text><text fill="#000000" font-family="sans-serif" font-size="12" lengthAdjust="spacingAndGlyphs" textLength="60" x="150" y="353.632">Application</text><ellipse cx="185" cy="411.2687" fill="none" filter="url(#f1)" rx="10" ry="10" style="stroke: #000000; stroke-width: 1.0;"/><ellipse cx="185.5" cy="411.7687" fill="#000000" filter="url(#f1)" rx="6" ry="6" style="stroke: none; stroke-width: 1.0;"/><rect fill="#FEFECE" filter="url(#f1)" height="50.1875" rx="12.5" ry="12.5" style="stroke: #A80036; stroke-width: 1.5;" width="61" x="310.5" y="300.9875"/><text fill="#000000" font-family="sans-serif" font-size="12" lengthAdjust="spacingAndGlyphs" textLength="39" x="320.5" y="323.4445">Legacy</text><text fill="#000000" font-family="sans-serif" font-size="12" lengthAdjust="spacingAndGlyphs" textLength="41" x="320.5" y="338.5383">System</text><ellipse cx="341" cy="396.175" fill="none" filter="url(#f1)" rx="10" ry="10" style="stroke: #000000; stroke-width: 1.0;"/><ellipse cx="341.5" cy="396.675" fill="#000000" filter="url(#f1)" rx="6" ry="6" style="stroke: none; stroke-width: 1.0;"/><rect fill="#FEFECE" filter="url(#f1)" height="50.1875" rx="12.5" ry="12.5" style="stroke: #A80036; stroke-width: 1.5;" width="61" x="461.5" y="255.3875"/><text fill="#000000" font-family="sans-serif" font-size="12" lengthAdjust="spacingAndGlyphs" textLength="39" x="471.5" y="277.8445">Legacy</text><text fill="#000000" font-family="sans-serif" font-size="12" lengthAdjust="spacingAndGlyphs" textLength="41" x="471.5" y="292.9383">System</text><ellipse cx="492" cy="350.575" fill="none" filter="url(#f1)" rx="10" ry="10" style="stroke: #000000; stroke-width: 1.0;"/><ellipse cx="492.5" cy="351.075" fill="#000000" filter="url(#f1)" rx="6" ry="6" style="stroke: none; stroke-width: 1.0;"/><rect fill="#FEFECE" filter="url(#f1)" height="50.1875" rx="12.5" ry="12.5" style="stroke: #A80036; stroke-width: 1.5;" width="61" x="562.5" y="209.7875"/><text fill="#000000" font-family="sans-serif" font-size="12" lengthAdjust="spacingAndGlyphs" textLength="39" x="572.5" y="232.2445">Legacy</text><text fill="#000000" font-family="sans-serif" font-size="12" lengthAdjust="spacingAndGlyphs" textLength="41" x="572.5" y="247.3383">System</text><ellipse cx="593" cy="304.975" fill="none" filter="url(#f1)" rx="10" ry="10" style="stroke: #000000; stroke-width: 1.0;"/><ellipse cx="593.5" cy="305.475" fill="#000000" filter="url(#f1)" rx="6" ry="6" style="stroke: none; stroke-width: 1.0;"/><line style="stroke: #A80036; stroke-width: 1.5;" x1="270.125" x2="270.125" y1="30" y2="50"/><polygon fill="#A80036" points="266.125,40,270.125,50,274.125,40,270.125,44" style="stroke: #A80036; stroke-width: 1.0;"/><line style="stroke: #A80036; stroke-width: 1.5;" x1="55" x2="55" y1="214.375" y2="249.375"/><polygon fill="#A80036" points="51,239.375,55,249.375,59,239.375,55,243.375" style="stroke: #A80036; stroke-width: 1.0;"/><line style="stroke: #A80036; stroke-width: 1.5;" x1="185" x2="185" y1="366.2687" y2="401.2687"/><polygon fill="#A80036" points="181,391.2687,185,401.2687,189,391.2687,185,395.2687" style="stroke: #A80036; stroke-width: 1.0;"/><line style="stroke: #A80036; stroke-width: 1.5;" x1="341" x2="341" y1="351.175" y2="386.175"/><polygon fill="#A80036" points="337,376.175,341,386.175,345,376.175,341,380.175" style="stroke: #A80036; stroke-width: 1.0;"/><line style="stroke: #A80036; stroke-width: 1.5;" x1="200" x2="185" y1="267.3875" y2="267.3875"/><line style="stroke: #A80036; stroke-width: 1.5;" x1="185" x2="185" y1="267.3875" y2="300.9875"/><polygon fill="#A80036" points="181,290.9875,185,300.9875,189,290.9875,185,294.9875" style="stroke: #A80036; stroke-width: 1.0;"/><line style="stroke: #A80036; stroke-width: 1.5;" x1="326" x2="341" y1="267.3875" y2="267.3875"/><line style="stroke: #A80036; stroke-width: 1.5;" x1="341" x2="341" y1="267.3875" y2="300.9875"/><polygon fill="#A80036" points="337,290.9875,341,300.9875,345,290.9875,341,294.9875" style="stroke: #A80036; stroke-width: 1.0;"/><line style="stroke: #A80036; stroke-width: 1.5;" x1="492" x2="492" y1="305.575" y2="340.575"/><polygon fill="#A80036" points="488,330.575,492,340.575,496,330.575,492,334.575" style="stroke: #A80036; stroke-width: 1.0;"/><line style="stroke: #A80036; stroke-width: 1.5;" x1="278" x2="263" y1="221.7875" y2="221.7875"/><line style="stroke: #A80036; stroke-width: 1.5;" x1="263" x2="263" y1="221.7875" y2="255.3875"/><polygon fill="#A80036" points="259,245.3875,263,255.3875,267,245.3875,263,249.3875" style="stroke: #A80036; stroke-width: 1.0;"/><line style="stroke: #A80036; stroke-width: 1.5;" x1="477" x2="492" y1="221.7875" y2="221.7875"/><line style="stroke: #A80036; stroke-width: 1.5;" x1="492" x2="492" y1="221.7875" y2="255.3875"/><polygon fill="#A80036" points="488,245.3875,492,255.3875,496,245.3875,492,249.3875" style="stroke: #A80036; stroke-width: 1.0;"/><line style="stroke: #A80036; stroke-width: 1.5;" x1="593" x2="593" y1="259.975" y2="294.975"/><polygon fill="#A80036" points="589,284.975,593,294.975,597,284.975,593,288.975" style="stroke: #A80036; stroke-width: 1.0;"/><line style="stroke: #A80036; stroke-width: 1.5;" x1="409.25" x2="377.5" y1="176.1875" y2="176.1875"/><line style="stroke: #A80036; stroke-width: 1.5;" x1="377.5" x2="377.5" y1="176.1875" y2="209.7875"/><polygon fill="#A80036" points="373.5,199.7875,377.5,209.7875,381.5,199.7875,377.5,203.7875" style="stroke: #A80036; stroke-width: 1.0;"/><line style="stroke: #A80036; stroke-width: 1.5;" x1="561.25" x2="593" y1="176.1875" y2="176.1875"/><line style="stroke: #A80036; stroke-width: 1.5;" x1="593" x2="593" y1="176.1875" y2="209.7875"/><polygon fill="#A80036" points="589,199.7875,593,209.7875,597,199.7875,593,203.7875" style="stroke: #A80036; stroke-width: 1.0;"/><line style="stroke: #A80036; stroke-width: 1.5;" x1="200.625" x2="55" y1="132.1875" y2="132.1875"/><line style="stroke: #A80036; stroke-width: 1.5;" x1="55" x2="55" y1="132.1875" y2="164.1875"/><polygon fill="#A80036" points="51,154.1875,55,164.1875,59,154.1875,55,158.1875" style="stroke: #A80036; stroke-width: 1.0;"/><line style="stroke: #A80036; stroke-width: 1.5;" x1="339.625" x2="485.25" y1="132.1875" y2="132.1875"/><line style="stroke: #A80036; stroke-width: 1.5;" x1="485.25" x2="485.25" y1="132.1875" y2="164.1875"/><polygon fill="#A80036" points="481.25,154.1875,485.25,164.1875,489.25,154.1875,485.25,158.1875" style="stroke: #A80036; stroke-width: 1.0;"/><line style="stroke: #A80036; stroke-width: 1.5;" x1="270.125" x2="270.125" y1="100.1875" y2="120.1875"/><polygon fill="#A80036" points="266.125,110.1875,270.125,120.1875,274.125,110.1875,270.125,114.1875" style="stroke: #A80036; stroke-width: 1.0;"/></g></svg>